# xmcd
#
# Track frame offsets:
#	150
#	13188
#	21632
#	34091
#	46097
#	57999
#	69484
#	79590
#	89433
#	102058
#
# Disc length: 1488 seconds
#
# Revision: 1
# Processed by: cddbd v1.5.2PL0 Copyright (c) Steve Scherf et al.
# Submitted via: audiograbber 1.83.01
#
DISCID=7a05ce0a
DTITLE=Porter Wagoner - Country
DYEAR=1971
DGENRE=Country
TTITLE0=Out Of The Silence (Came A Song)
TTITLE1=Be Proud Of Your Man
TTITLE2=I Guess I'M Crazy
TTITLE3=I Haven't Seen Mary In Years
TTITLE4=I've Enjoyed As Much Of This As I Can Stand
TTITLE5=I Went Out Of My Way
TTITLE6=I've Gotta Find Someone (Who Loves Like I Do)
TTITLE7=I'll Meet You In The Church Sunday Morning
TTITLE8=Tricks Of The Trade
TTITLE9=I Wonder Where You Are Tonight
EXTD=
EXTT0=
EXTT1=
EXTT2=
EXTT3=
EXTT4=
EXTT5=
EXTT6=
EXTT7=
EXTT8=
EXTT9=
PLAYORDER=
